<svg width="50" height="50" viewBox="0 0 50 50" fill="none" xmlns="http://www.w3.org/2000/svg">
<path fill-rule="evenodd" clip-rule="evenodd" d="M43.141 33.8492C43.141 34.382 42.981 34.8722 42.7116 35.2874L31.4974 25.0273L42.9891 15.2797C43.0843 15.5532 43.141 15.8429 43.141 16.1508V33.8492ZM40.4854 36.5049H9.51262C9.23713 36.5049 8.97379 36.4563 8.72463 36.3793L19.8821 26.2022L22.6634 28.5541C24.0145 29.6986 25.9997 29.6986 27.3508 28.5541L30.1422 26.1881L41.2733 36.3793C41.0242 36.4563 40.7629 36.5049 40.4854 36.5049ZM6.85695 33.8492V16.1508C6.85695 15.8429 6.91569 15.5532 7.00887 15.2797L18.5289 25.0415L7.28639 35.2874C7.01698 34.8722 6.85695 34.382 6.85695 33.8492ZM9.51262 13.4951H40.4854C41.008 13.4951 41.486 13.6511 41.8973 13.9104L26.2164 27.1989C25.4993 27.8066 24.529 27.8066 23.8099 27.1989L8.10274 13.9104C8.51193 13.6511 8.98999 13.4951 9.51262 13.4951ZM45.9486 0H4.05137C1.82312 0 0 1.82312 0 4.05137V45.9486C0 48.1769 1.82312 50 4.05137 50H45.9486C48.1769 50 50 48.1769 50 45.9486V4.05137C50 1.82312 48.1769 0 45.9486 0Z" fill="#363D47"/>
</svg>
