<svg width="51" height="51" viewBox="0 0 51 51" fill="none" xmlns="http://www.w3.org/2000/svg">
<path fill-rule="evenodd" clip-rule="evenodd" d="M28.2021 25.5447H32.7377V19.3265H28.3149C27.5788 14.9842 31.0543 16.7637 32.7992 16.0995V10.0842C29.9716 10.2871 27.1277 9.47732 24.5318 11.0703C21.3762 13.0057 21.7391 16.2512 21.7001 19.4208H18.2369V25.5611H21.7473V40.8249H28.2021V33.2248V25.5447ZM50.9969 25.4873C50.9969 31.6871 51.0051 37.8869 50.9948 44.0867C50.9866 48.3696 48.3662 50.9918 44.0766 50.9939C31.7289 51.0021 19.379 51.0021 7.03125 50.9939C2.68021 50.9897 0.0125764 48.3368 0.00847549 43.9986C-0.00177674 31.6502 -0.00382718 19.3019 0.00847549 6.95352C0.0125764 2.75266 2.75402 0.0156456 6.96153 0.0115452C19.3626 -0.00280624 31.7637 -0.00485644 44.1648 0.0115452C48.2944 0.0176958 50.9805 2.73831 50.9928 6.88586L50.9969 25.4873Z" fill="#363D47"/>
</svg>
