<svg width="51" height="51" viewBox="0 0 51 51" fill="none" xmlns="http://www.w3.org/2000/svg">
<rect width="51" height="51" fill="#F5F5F5"/>
<g clip-path="url(#clip0_0_1)">
<rect width="1800" height="3624" transform="translate(-1170 -3234)" fill="white"/>
<rect x="-920.5" y="-3233.5" width="1285" height="3495" fill="white" stroke="white"/>
<rect x="-1170" y="-709" width="1800" height="971" fill="#F6F5F1"/>
<rect x="-1169.5" y="-708.5" width="1799" height="970" stroke="#9BDAD6" stroke-opacity="0.01"/>
<path fill-rule="evenodd" clip-rule="evenodd" d="M37.032 26.6427C37.9927 26.5833 38.8902 26.528 39.761 26.4727V24.5369C38.8309 24.4837 37.9743 24.4345 37.032 24.3813C36.9727 23.4369 36.9216 22.5787 36.8664 21.663H34.9203C34.8712 22.6094 34.8283 23.4697 34.7833 24.3854C33.8123 24.4366 32.9557 24.4796 32.1074 24.5246V26.6222H34.9243V29.3711H36.8664C36.9216 28.4494 36.9747 27.589 37.032 26.6427ZM27.7184 18.8424C24.3086 14.6596 16.8308 14.9873 13.2983 19.4344C10.6265 22.7978 10.4323 27.3473 12.8036 30.93C15.083 34.3692 19.4576 35.9239 23.6647 34.7871C28.2192 33.556 30.9626 28.9348 29.6441 24.7438H20.8866V27.5665H23.6156H26.3713C25.7989 30.1762 24.1921 31.5117 21.4896 31.7882C18.9139 32.0525 16.3013 30.5674 15.2588 28.2486C14.1365 25.7516 14.6986 22.7016 16.6121 20.8969C18.8505 18.7871 21.4957 18.8158 25.5638 20.9994C26.2833 20.2804 27.0029 19.5593 27.7184 18.8424ZM25.3839 50.996C19.2491 50.996 13.1123 51.0062 6.97756 50.9939C2.8114 50.9837 0.0618949 48.4109 0.0414525 44.2302C-0.0178305 31.778 -0.0096535 19.3238 0.0414525 6.86956C0.0578064 2.63964 2.84206 0.00950097 7.07159 0.00540419C19.3432 -0.00278938 31.6147 -0.000740986 43.8863 0.00540419C48.2753 0.00745258 50.9859 2.71338 50.99 7.12151C51.0023 19.418 51.0043 31.7165 50.99 44.013C50.9839 48.3372 48.2916 50.9878 43.9476 50.9939C37.7597 51.0042 31.5718 50.998 25.3839 50.996Z" fill="#363D47"/>
</g>
<defs>
<clipPath id="clip0_0_1">
<rect width="1800" height="3624" fill="white" transform="translate(-1170 -3234)"/>
</clipPath>
</defs>
</svg>
