<svg width="51" height="51" viewBox="0 0 51 51" fill="none" xmlns="http://www.w3.org/2000/svg">
<rect width="51" height="51" fill="#F5F5F5"/>
<g clip-path="url(#clip0_0_1)">
<rect width="1800" height="3624" transform="translate(-966 -3234)" fill="white"/>
<rect x="-716.5" y="-3233.5" width="1285" height="3495" fill="white" stroke="white"/>
<rect x="-966" y="-709" width="1800" height="971" fill="#F6F5F1"/>
<rect x="-965.5" y="-708.5" width="1799" height="970" stroke="#9BDAD6" stroke-opacity="0.01"/>
<path fill-rule="evenodd" clip-rule="evenodd" d="M25.5137 42.0352C25.5137 42.0392 25.5137 42.0412 25.5116 42.0453C28.2654 42.0453 31.0191 42.1121 33.7687 42.0291C38.0543 41.9014 41.882 38.4772 42.042 34.208C42.2629 28.405 42.2568 22.5797 42.042 16.7747C41.888 12.6089 38.0624 9.06103 33.9025 8.97796C28.2958 8.86449 22.685 8.85639 17.0783 8.98201C12.7866 9.07724 9.02786 12.7933 8.91844 17.107C8.77457 22.7601 8.77457 28.4232 8.9306 34.0763C9.04407 38.1996 12.8494 41.8629 16.9466 42.0149C19.7996 42.1202 22.6586 42.0352 25.5137 42.0352M50.9982 25.5643C50.9962 31.5983 51.0022 37.6323 50.9941 43.6662C50.9881 48.3589 48.3397 50.9949 43.6286 50.997C31.5601 51.001 19.4916 51.001 7.42304 50.997C2.62481 50.997 0.0109122 48.3771 0.00685967 43.5507C-0.00124545 31.5334 -0.00327173 19.5161 0.00685967 7.50087C0.0109122 2.59143 2.60252 0.0141236 7.53652 0.0100713C19.5524 -0.00208583 31.5702 -0.00208583 43.5861 0.00399272C48.3802 0.00601891 50.9941 2.64816 50.9982 7.46035C51.0023 13.4943 50.9982 19.5283 50.9982 25.5643" fill="#363D47"/>
<path fill-rule="evenodd" clip-rule="evenodd" d="M36.9403 15.743C36.7707 14.8008 36.2061 14.0901 35.0046 14.0559C33.8547 14.0237 33.0027 14.8693 33.0564 15.9927C33.1123 17.1523 33.8134 17.7664 34.9591 17.8388C36.0324 17.9073 36.9713 16.9349 36.9403 15.743M34.3779 25.0927C34.4131 20.3514 30.399 16.3812 25.537 16.349C20.7122 16.3168 16.5802 20.3192 16.5926 25.0121C16.6071 29.695 20.5653 33.5947 25.3736 33.6612C30.2439 33.7276 34.3428 29.8259 34.3779 25.0927M25.5101 38.9662C22.6479 38.9662 19.7836 39.0487 16.9255 38.944C13.9599 38.8373 11.2156 36.4294 11.1288 33.5364C10.9592 27.867 10.9571 22.1875 11.1226 16.5181C11.2094 13.5647 13.9848 11.1165 17.0496 11.0662C22.6665 10.9756 28.2854 10.9816 33.9023 11.0622C36.901 11.1065 39.7135 13.4157 39.8273 16.3349C40.0527 22.103 40.061 27.8911 39.8314 33.6572C39.7115 36.661 36.8968 38.8756 33.7761 38.9621C31.0215 39.0366 28.2647 38.9782 25.508 38.9782C25.5101 38.9742 25.5101 38.9702 25.5101 38.9662" fill="#363D47"/>
<path fill-rule="evenodd" clip-rule="evenodd" d="M25.9913 19.0001C29.279 18.9825 32.0136 21.7259 31.9999 25.0281C31.9863 28.2971 29.3631 30.9545 26.1027 30.9994C22.7934 31.0444 20.0276 28.3538 20.0002 25.0633C19.9728 21.7806 22.7016 19.0177 25.9913 19.0001" fill="#363D47"/>
</g>
<defs>
<clipPath id="clip0_0_1">
<rect width="1800" height="3624" fill="white" transform="translate(-966 -3234)"/>
</clipPath>
</defs>
</svg>
