<svg width="46" height="45" viewBox="0 0 46 45" fill="none" xmlns="http://www.w3.org/2000/svg">
<path fill-rule="evenodd" clip-rule="evenodd" d="M40.1104 0.536255H5.806C3.1008 0.536255 0.887451 2.76576 0.887451 5.49071V39.3941C6.17489 31.4372 11.8853 25.5538 17.9253 21.9172C16.6538 20.9288 13.6904 20.3665 10.8647 21.8008C11.0369 21.4664 12.8346 17.3467 16.3538 17.9586C14.2413 15.3154 10.6213 15.1147 10.6213 15.1147C10.6213 15.1147 14.7012 11.4584 19.8927 16.2889C21.8773 12.0306 15.1586 9.03562 15.1586 9.03562C15.1586 9.03562 22.3446 6.99191 24.044 13.6557C26.0802 10.7895 24.9662 8.21814 24.9662 8.21814C25.5072 8.59715 30.0913 12.0033 27.4845 19.331C30.893 18.3995 33.5958 20.0964 34.6557 21.2929L37.3732 24.3548C37.3732 24.3548 33.6523 21.6893 30.9914 22.5192C32.6588 24.0897 32.6342 26.9633 32.6342 26.9633C32.6342 26.9633 30.9865 24.6149 28.7953 24.8651C37.1273 31.5041 28.9035 37.8582 28.9035 37.8582C28.9035 37.8582 31.3603 33.0722 28.1878 29.9707C29.6118 34.7567 22.7061 36.9366 22.7061 36.9366C22.7061 36.9366 27.2041 31.8435 24.2727 29.6288C22.4454 34.5536 15.5546 34.3727 15.5546 34.3727C15.5546 34.3727 21.9585 29.6239 21.265 26.6363C20.1558 24.4266 15.8005 27.0476 13.865 28.4992C9.10634 32.7006 5.12478 38.0167 1.95478 43.0826C2.85733 44.2395 4.2419 45 5.806 45H40.1104C42.8156 45 45.0289 42.7705 45.0289 40.0456V5.49071C45.0289 2.76576 42.8156 0.536255 40.1104 0.536255Z" fill="#363D47"/>
</svg>
