<svg width="50" height="50" viewBox="0 0 50 50" fill="none" xmlns="http://www.w3.org/2000/svg">
<rect width="50" height="50" fill="#F5F5F5"/>
<g clip-path="url(#clip0_0_1)">
<rect width="1800" height="3624" transform="translate(-1035 -3234)" fill="white"/>
<rect x="-785.5" y="-3233.5" width="1285" height="3495" fill="white" stroke="white"/>
<rect x="-1035" y="-709" width="1800" height="971" fill="#F6F5F1"/>
<rect x="-1034.5" y="-708.5" width="1799" height="970" stroke="#9BDAD6" stroke-opacity="0.01"/>
<path fill-rule="evenodd" clip-rule="evenodd" d="M24.2996 20.0388C18.3384 19.8025 13.8323 17.0118 9.89819 12.7361C8.17841 16.2153 9.10852 19.0916 11.732 22.029C10.4497 21.7234 9.68042 21.5401 8.78695 21.3262C8.95791 24.6812 10.9097 26.651 13.6166 28.1401C12.9226 28.1768 12.2265 28.2114 11.4002 28.2542C12.4992 31.0612 14.5162 32.5645 17.4164 33.1553C14.8357 35.2412 11.9009 35.7749 8.53458 35.9134C9.18789 36.327 9.51557 36.5592 9.86359 36.7507C20.9028 42.7884 34.9358 36.4186 37.6224 24.1109C37.9785 22.4792 37.6732 20.6336 38.294 19.1486C38.9229 17.6412 40.3211 16.4557 41.4832 15.0053C40.2824 15.319 39.2017 15.6022 37.9562 15.9281C38.7438 14.5144 39.4195 13.3023 40.0932 12.0883C39.4704 12.2268 39.0491 12.4957 38.6502 12.7931C37.5267 13.6405 36.6536 13.8299 35.3816 12.6811C34.3761 11.7725 32.7785 11.192 31.3965 11.0861C26.6748 10.7296 23.6015 14.6101 24.2996 20.0388ZM24.9774 49.9955C18.9042 49.9955 12.833 50.0077 6.75984 49.9914C2.71783 49.9812 0.0251953 47.3371 0.0170543 43.2875C-0.00736872 31.1305 -0.00329822 18.9714 0.015019 6.81439C0.0211248 2.7118 2.74022 0.0147685 6.85142 0.0106944C18.9958 -0.00356481 31.1421 -0.00356481 43.2885 0.0106944C47.2654 0.0147685 49.9662 2.63847 49.9763 6.6005C50.0089 18.8614 50.0069 31.1203 49.9763 43.3792C49.9662 47.4593 47.3264 49.9853 43.1969 49.9934C37.1237 50.0056 31.0505 49.9975 24.9774 49.9955Z" fill="#363D47"/>
</g>
<defs>
<clipPath id="clip0_0_1">
<rect width="1800" height="3624" fill="white" transform="translate(-1035 -3234)"/>
</clipPath>
</defs>
</svg>
