<svg width="50" height="50" viewBox="0 0 50 50" fill="none" xmlns="http://www.w3.org/2000/svg">
<path fill-rule="evenodd" clip-rule="evenodd" d="M34.9289 27.611L25.7829 43.7206C25.7019 43.8665 25.5804 43.988 25.4345 44.069C25.001 44.3081 24.4561 44.1521 24.2171 43.7206L15.0711 27.611C13.9631 25.6583 13.3655 23.896 13.3655 21.36C13.3655 14.2582 18.614 9.27929 25.001 9.27929C31.386 9.27929 36.6345 14.2582 36.6345 21.36C36.6345 23.894 36.0369 25.6583 34.9289 27.611ZM45.9486 0H4.05137C1.82312 0 0 1.82304 0 4.05121V45.9488C0 48.177 1.82312 50 4.05137 50H45.9486C48.1769 50 50 48.177 50 45.9488V4.05121C50 1.82304 48.1769 0 45.9486 0Z" fill="#363D47"/>
</svg>
