<svg width="292" height="97" viewBox="0 0 292 97" fill="none" xmlns="http://www.w3.org/2000/svg">
<path fill-rule="evenodd" clip-rule="evenodd" d="M39 86.3054V93.2263C34.4518 95.7441 29.2018 97 23.25 97C18.4127 97 14.3102 96.0161 10.9458 94.0452C7.57229 92.0744 4.90964 89.361 2.94578 85.899C0.981928 82.44 0 78.6999 0 74.6726C0 68.2772 2.24398 62.8994 6.74096 58.539C11.2349 54.1787 16.7831 52 23.3735 52C27.9187 52 32.9729 53.2009 38.5361 55.6117V62.3769C33.4699 59.4404 28.5181 57.9737 23.6837 57.9737C18.7259 57.9737 14.6054 59.5596 11.3283 62.7374C8.05723 65.9153 6.41867 69.8937 6.41867 74.6726C6.41867 79.4944 8.03012 83.4575 11.253 86.559C14.4759 89.6635 18.5994 91.2157 23.6235 91.2157C28.8705 91.2157 33.994 89.5779 39 86.3054Z" fill="#349898"/>
<path fill-rule="evenodd" clip-rule="evenodd" d="M100.145 77.4404H94.275V91.391H100.456C103.886 91.391 106.215 91.1217 107.438 90.5893C108.664 90.0507 109.649 89.2184 110.389 88.0831C111.133 86.9509 111.505 85.733 111.505 84.4325C111.505 83.0861 111.112 81.8621 110.328 80.7482C109.542 79.6344 108.429 78.8021 106.987 78.2605C105.541 77.7127 103.258 77.4404 100.145 77.4404ZM99.6719 58.606H94.275V71.8314H98.4462C101.797 71.8314 104.175 71.1918 105.59 69.9127C107.002 68.6306 107.706 66.972 107.706 64.9371C107.706 60.7143 105.029 58.606 99.6719 58.606ZM102.843 97H88V53H99.4859C103.105 53 105.929 53.4896 107.959 54.4627C109.987 55.4388 111.539 56.7852 112.603 58.4958C113.67 60.2063 114.201 62.1892 114.201 64.4322C114.201 68.756 111.975 71.8558 107.52 73.7255C110.719 74.3283 113.268 75.6533 115.161 77.6882C117.055 79.7262 118 82.162 118 84.9955C118 87.2447 117.424 89.252 116.271 91.0146C115.128 92.7772 113.436 94.2154 111.207 95.3292C108.978 96.44 106.191 97 102.843 97Z" fill="#349898"/>
<path fill-rule="evenodd" clip-rule="evenodd" d="M147.112 78.458L140.028 62.6148L133.454 78.458H147.112ZM137.873 53H142.296L162 97H155.563L149.704 84.0322H130.953L125.464 97H119L137.873 53Z" fill="#349898"/>
<path fill-rule="evenodd" clip-rule="evenodd" d="M89.9034 22.7117C94.942 12.3946 111 20.6732 111 20.6732C111 20.6732 103.801 3.7819 88.5116 10.7329C90.8182 2.44822 97.4249 0.643647 97.4249 0.643647C95.8689 0.187946 82.3242 -3.37259 72.4141 12.8321C68.9254 4.87862 61.5315 2.3024 57.6204 2.10493L47.6069 1.59454C47.6069 1.59454 58.4166 4.63254 60.942 11.0002C55.3867 10.2134 49.9561 14.658 49.9561 14.658C49.9561 14.658 56.9609 14.2144 59.8692 18.7927C34.3935 13.0022 35.0013 38.4759 35.0013 38.4759C35.0013 38.4759 40.3073 26.4424 51.0957 27.77C39.8028 32.3756 46.3123 48.9297 46.3123 48.9297C46.3123 48.9297 49.0565 32.5214 57.7845 34.7452C51.2446 45.7793 62.2123 58.6999 62.2123 58.6999C62.2123 58.6999 61.3644 39.1686 68.114 35.9209C74.2253 34.6207 75.1887 47.1676 75.3194 52.8153V77.6115C75.3194 81.0505 75.0489 83.4778 74.508 84.8966C73.964 86.3153 73.0796 87.5457 71.8489 88.5847C69.5119 90.526 66.4881 91.4921 62.7806 91.4921C60.1701 91.4921 57.906 91.0121 55.9915 90.0399C54.0739 89.0708 52.6425 87.7857 51.7035 86.1817C50.7675 84.5746 50.2995 81.7188 50.2995 77.6115V53.2588H44.0118V77.5507C44.0118 81.0718 44.2489 83.6571 44.7138 85.3037C45.1849 86.9533 45.7775 88.3447 46.4977 89.4809C47.2179 90.6172 48.0962 91.641 49.1416 92.5584C52.5787 95.5175 57.1463 97 62.8383 97C68.427 97 72.952 95.5114 76.4164 92.5281C77.4558 91.6288 78.3401 90.6172 79.0573 89.4809C79.7775 88.3447 80.3823 86.9199 80.8716 85.2095C81.3609 83.5022 81.604 80.9685 81.604 77.6115V52.8153C81.8137 40.1286 80.0298 35.049 80.0298 35.049C83.4122 34.0283 91.3621 39.1625 93.3496 48.4345C93.7173 47.5899 98.7772 37.844 92.1918 32.0414C100.473 32.0414 106.435 38.6643 106.435 38.6643C106.435 38.6643 107.098 25.2545 89.9034 22.7117Z" fill="#349898"/>
<path fill-rule="evenodd" clip-rule="evenodd" d="M200.953 53L184.528 72.7983L168.13 53.1524L168.004 53H164V97H168.231V59.4847L184.512 79.1398L200.741 59.4877V97H205V53H200.953Z" fill="#319898"/>
<path fill-rule="evenodd" clip-rule="evenodd" d="M234.4 78.5844H217.567L225.968 59.8288L234.4 78.5844ZM227.269 53.2429L227.158 53H224.842L205 97H209.323L215.958 82.1825H236.024L242.674 97H247L227.269 53.2429Z" fill="#319898"/>
<path fill-rule="evenodd" clip-rule="evenodd" d="M272.211 74.4529L290.924 53H285.563L269.485 71.3465L253.382 53H248.015L266.74 74.4772L247 97H252.37L269.488 77.4681L286.627 97H292L272.211 74.4529Z" fill="#319898"/>
</svg>
