<svg width="24" height="36" viewBox="0 0 24 36" fill="none" xmlns="http://www.w3.org/2000/svg">
<mask id="mask0_3_864" style="mask-type:luminance" maskUnits="userSpaceOnUse" x="0" y="0" width="24" height="36">
<path fill-rule="evenodd" clip-rule="evenodd" d="M0 0H24V36H0V0Z" fill="white"/>
</mask>
<g mask="url(#mask0_3_864)">
<path fill-rule="evenodd" clip-rule="evenodd" d="M17.2373 16.0866L19.2952 15.7835C19.2241 17.8401 18.4149 19.7799 17.1348 21.2608C16.8238 21.0792 16.4999 20.9206 16.1636 20.7863C16.8293 19.3378 17.2134 17.7382 17.2373 16.0866M14.4775 21.5807C14.2998 21.8615 13.5877 22.8699 12.9322 23.476L12.8413 21.4882C13.3963 21.4511 13.9438 21.4822 14.4775 21.5807M15.5847 21.8905C15.8021 21.9729 16.0133 22.0674 16.2197 22.172C15.744 22.579 15.2252 22.93 14.6723 23.2141C15.0045 22.7956 15.31 22.3535 15.5847 21.8905M12.7846 20.2787L12.6233 16.7656L16.1089 16.2526C16.0871 17.2556 15.8342 19.0834 15.1029 20.4522C14.3661 20.2801 13.5884 20.2173 12.7846 20.2787M11.2851 12.3203L11.4423 15.7248L7.94714 16.2398C7.87538 14.4849 8.70167 12.4398 8.84451 12.1178C9.6175 12.3122 10.4376 12.3851 11.2851 12.3203M10.0665 23.8924C9.49585 23.7736 8.95182 23.5786 8.44469 23.3167C8.63811 23.1527 8.83836 22.9974 9.04545 22.853C9.35847 23.2303 9.70088 23.5766 10.0665 23.8924M4.82581 17.9137L6.88369 17.6106C7.05865 19.2332 7.58354 20.6985 8.37293 21.933C8.05376 22.1646 7.74894 22.4156 7.45847 22.6856C6.06013 21.5989 5.08484 19.9223 4.82581 17.9137M6.81944 16.4051L4.75883 16.7089C4.79027 14.6725 5.54822 12.7408 6.7757 11.2431C7.10103 11.4435 7.4407 11.619 7.79405 11.7675C7.16937 13.2038 6.81944 14.7819 6.81944 16.4051M8.34764 10.6552C8.10844 10.5587 7.87675 10.4466 7.65121 10.3218C8.17678 9.84389 8.75977 9.43689 9.38581 9.11493C9.00239 9.5982 8.65383 10.1132 8.34764 10.6552M8.01138 17.4446L11.4977 16.9316L11.6597 20.4441C10.8621 20.6189 10.1 20.9078 9.38923 21.2932C8.44264 19.8602 8.12484 18.428 8.01138 17.4446M15.8041 10.5884C16.1397 10.3386 16.4589 10.0659 16.7603 9.77302C18.1087 10.8907 19.0328 12.5754 19.2508 14.5753L17.1908 14.8791C17.0412 13.2767 16.5518 11.8229 15.8041 10.5884M10.1089 22.2239C10.627 21.9708 11.1642 21.7798 11.7157 21.6529L11.8073 23.6414C11.0958 23.2242 10.3105 22.4487 10.1089 22.2239M12.3547 10.9461L12.2508 8.68769C12.6206 8.91447 13.6171 9.62318 14.1167 10.2975C13.5508 10.5904 12.9616 10.8077 12.3547 10.9461M13.9909 8.4366C14.6381 8.57092 15.2498 8.8031 15.8123 9.12033C15.6011 9.30932 15.3824 9.48751 15.1555 9.65287C14.8035 9.2074 14.4133 8.80108 13.9909 8.4366M9.43228 10.9866C10.0474 9.99508 10.7807 9.18513 11.1259 8.85372L11.2298 11.1115C10.6181 11.152 10.0173 11.1101 9.43228 10.9866M16.0631 15.0444L12.568 15.5594L12.4108 12.1549C13.2528 11.9714 14.0552 11.6588 14.8001 11.241C14.971 11.5164 15.8978 13.1289 16.0631 15.0444M21.1829 34.7579C20.7209 35.0596 20.0224 35.0913 19.6479 35.1082C19.0457 35.1352 8.94498 35.1737 4.17311 35.1663L21.8288 33.2777C21.7898 34.3604 21.3415 34.6546 21.1829 34.7579M11.5981 7.10154C16.2668 6.40633 20.2438 9.90126 20.4824 14.9067C20.7195 19.9122 17.128 24.533 12.4593 25.2275C7.79131 25.9227 3.81362 22.4285 3.57577 17.423C3.33862 12.4168 6.93016 7.79607 11.5981 7.10154M23.9974 30.638L22.6776 2.01034C22.6188 0.737367 21.6094 -0.152902 20.4229 0.0219122L2.04552 2.72781C0.859047 2.90195 -0.0560969 4.0757 0.00268006 5.348L1.32311 33.9763C1.37847 35.1797 2.28405 36.0403 3.38509 35.9829C3.38509 35.9836 18.5632 36.0255 19.6875 35.9755C20.794 35.9256 22.7712 35.7562 22.7104 32.9969C23.506 32.5474 24.0425 31.6234 23.9974 30.638" fill="#231F20"/>
</g>
</svg>
