<svg width="45" height="44" viewBox="0 0 45 44" fill="none" xmlns="http://www.w3.org/2000/svg">
<path fill-rule="evenodd" clip-rule="evenodd" d="M22.5659 27.548C17.0642 27.548 12.6028 23.1115 12.6028 17.6406C12.6028 12.1672 17.0642 7.73319 22.5659 7.73319C28.0676 7.73319 32.5289 12.1672 32.5289 17.6406C32.5289 23.1115 28.0676 27.548 22.5659 27.548ZM39.7178 0.391296H5.41394C2.70859 0.391296 0.495117 2.5924 0.495117 5.28263V39.3948C0.495117 41.5299 1.89698 43.3372 3.8227 44C6.58216 36.3475 13.921 30.8643 22.5659 30.8643C31.2107 30.8643 38.5496 36.3475 41.309 44C43.2347 43.3372 44.6366 41.5299 44.6366 39.3948V5.28263C44.6366 2.5924 42.4231 0.391296 39.7178 0.391296Z" fill="#363D47"/>
</svg>
